# xmcd
#
# Track frame offsets: 
#        150
#        14111
#        26063
#        38784
#        52585
#        64186
#        75125
#        85581
#        98120
#        109577
#        121147
#        133986
#        145624
#        159726
#
# Disc length: 2289 seconds
#
# Revision: 0
# Processed by: cddbd v1.5.2PL0 Copyright (c) Steve Scherf et al.
# Submitted via: ExactAudioCopy v0.99pb4
#
DISCID=a908ef0e
DTITLE=Bill Doggett - 14 Original Greatest Hits
DYEAR=1978
DGENRE=
TTITLE0=Moondust
TTITLE1=High Heels
TTITLE2=As You Desire Me
TTITLE3=Honky Tonk - Part 1
TTITLE4=Slow Walk
TTITLE5=Sweet Lorraine
TTITLE6=Don't Get Around Much Anymore
TTITLE7=Big Dog Blues - Part 1
TTITLE8=Ram-Bunk-Shush
TTITLE9=Soft
TTITLE10=Blip Blop
TTITLE11=Hold It
TTITLE12=Smokie - Part 2
TTITLE13=Honky Tonk - Part 2
EXTD=
EXTT0=
EXTT1=
EXTT2=
EXTT3=
EXTT4=
EXTT5=
EXTT6=
EXTT7=
EXTT8=
EXTT9=
EXTT10=
EXTT11=
EXTT12=
EXTT13=
PLAYORDER=
